<?xml version="1.0" encoding="UTF-8" standalone="no"?>
<svg
   width="160"
   height="160"
   viewBox="0 0 160 160"
   version="1.1"
   id="svg8"
   sodipodi:docname="Typeform_Logo.svg"
   inkscape:export-filename="C:\Users\niemczik\Documents\Git\mdz-tools\teams\typeform-config\package\icon-color.png"
   inkscape:export-xdpi="115.2"
   inkscape:export-ydpi="115.2"
   inkscape:version="1.1.1 (3bf5ae0d25, 2021-09-20)"
   xmlns:inkscape="http://www.inkscape.org/namespaces/inkscape"
   xmlns:sodipodi="http://sodipodi.sourceforge.net/DTD/sodipodi-0.dtd"
   xmlns="http://www.w3.org/2000/svg"
   xmlns:svg="http://www.w3.org/2000/svg">
  <defs
     id="defs12" />
  <sodipodi:namedview
     id="namedview10"
     pagecolor="#505050"
     bordercolor="#eeeeee"
     borderopacity="1"
     inkscape:pageshadow="0"
     inkscape:pageopacity="0"
     inkscape:pagecheckerboard="0"
     showgrid="false"
     inkscape:zoom="2.3378718"
     inkscape:cx="66.513485"
     inkscape:cy="79.345668"
     inkscape:window-width="2560"
     inkscape:window-height="1017"
     inkscape:window-x="1912"
     inkscape:window-y="-8"
     inkscape:window-maximized="1"
     inkscape:current-layer="layer1" />
  <g
     fill="none"
     fill-rule="evenodd"
     id="g6"
     transform="matrix(0.77969944,0,0,0.77914419,17.596875,39.781237)"
     style="display:none;stroke-width:1.283"
     inkscape:label="Logo">
    <path
       d="m 92.623,72.412 c -3.602,8.23 -7.51,14.505 -12.958,19.666 -6.06,5.784 -13.264,8.854 -21.522,9.566 -6.808,0.578 -13.44,-0.222 -19.984,-2.18 -6.678,-1.958 -12.74,-5.028 -18.01,-9.7 C 15.801,85.849 12.463,81.177 9.871,75.927 5.874,67.874 3.195,59.42 1.965,50.477 1.175,44.693 1.131,38.953 2.625,33.302 4.03,27.874 6.885,23.336 10.838,19.465 14.746,15.638 19.27,12.702 24.101,10.255 31.526,6.562 39.3,3.803 47.47,2.335 53.312,1.267 59.154,1 65.04,2.2 c 5.533,1.158 10.277,3.783 14.406,7.654 4.48,4.183 7.818,9.21 10.54,14.683 3.12,6.318 5.316,12.948 6.326,19.978 0.966,6.985 0.527,13.88 -1.36,20.69 -0.88,2.936 -1.89,5.74 -2.33,7.207 z"
       stroke="#262627"
       id="path2"
       style="stroke-width:1.6461" />
    <path
       d="m 50,43.238 v -2.626 h 13.66 v 2.626 h -5.446 v 14.95 H 55.49 v -14.95 z m 36.588,15.127 c -1.45,0 -2.724,-0.712 -3.34,-1.6 v 6.495 h -2.59 V 45.507 h 2.59 v 1.468 c 0.485,-0.845 1.89,-1.646 3.383,-1.646 3.647,0 5.58,2.4 5.58,6.495 0,4.05 -1.977,6.54 -5.622,6.54 z m 2.898,-6.54 c 0,-1.29 -0.307,-2.314 -0.878,-3.07 -0.615,-0.757 -1.362,-1.157 -2.284,-1.157 -0.922,0 -1.713,0.356 -2.284,1.157 -0.615,0.756 -0.878,1.78 -0.878,3.07 0,1.29 0.307,2.313 0.878,3.07 0.615,0.756 1.362,1.112 2.284,1.112 0.922,0 1.713,-0.356 2.284,-1.112 0.57,-0.757 0.878,-1.78 0.878,-3.07 z M 106,52.58 h -8.827 c 0,2.003 1.142,3.472 3.075,3.472 1.405,0 2.635,-0.8 3.25,-2.136 l 2.196,0.89 c -1.274,2.49 -2.723,3.56 -5.49,3.56 -4.13,0 -5.798,-3.516 -5.798,-6.497 0,-3.026 1.713,-6.497 5.798,-6.497 3.997,0 5.753,3.293 5.753,6.096 v 1.11 H 106 Z M 97.217,50.4 h 6.06 c -0.218,-1.556 -1.273,-2.758 -3.03,-2.758 -1.625,0 -2.723,1.113 -3.03,2.76 z m 10.893,-2.58 v -2.313 h 1.625 v -0.668 c 0,-2.982 1.58,-4.45 4.172,-4.45 0.835,0 1.494,0.133 2.065,0.445 l -0.527,2.225 c -0.44,-0.223 -0.923,-0.356 -1.45,-0.356 -1.098,0 -1.67,0.667 -1.67,2.002 v 0.845 h 2.768 v 2.315 h -2.767 v 10.322 h -2.59 V 47.865 h -1.626 z m 8.61,4.005 c 0,-1.824 0.526,-3.382 1.668,-4.628 1.098,-1.245 2.635,-1.868 4.48,-1.868 1.844,0 3.338,0.622 4.436,1.867 1.098,1.246 1.67,2.804 1.67,4.628 0,1.824 -0.572,3.38 -1.67,4.627 -1.098,1.246 -2.592,1.87 -4.436,1.87 -1.845,0 -3.382,-0.624 -4.48,-1.87 -1.098,-1.2 -1.67,-2.758 -1.67,-4.627 z m 2.722,0 c 0,1.157 0.307,2.135 0.878,2.98 0.615,0.846 1.45,1.247 2.504,1.247 1.054,0 1.888,-0.4 2.503,-1.246 0.615,-0.846 0.923,-1.824 0.923,-2.98 0,-1.158 -0.308,-2.137 -0.923,-2.938 -0.615,-0.845 -1.45,-1.246 -2.503,-1.246 -1.054,0 -1.89,0.445 -2.504,1.246 -0.57,0.846 -0.878,1.824 -0.878,2.937 z m 14.582,6.318 h -2.59 V 45.507 h 2.59 v 2.09 c 0.835,-1.467 2.284,-2.313 3.69,-2.313 0.57,0 1.098,0.09 1.58,0.312 l -0.438,2.402 c -0.396,-0.267 -0.88,-0.356 -1.45,-0.356 -0.922,0 -1.713,0.49 -2.372,1.513 -0.66,1.024 -1.01,2.447 -1.01,4.316 v 4.673 z m 7.906,-12.636 h 2.592 v 2.135 c 1.01,-1.557 2.24,-2.358 3.777,-2.358 1.668,0 3.073,1.024 3.425,2.625 0.878,-1.69 2.284,-2.626 3.865,-2.626 2.24,0 3.558,1.513 3.558,3.782 v 9.032 h -2.592 v -8.453 c 0,-1.335 -0.702,-2.047 -1.844,-2.047 -1.626,0 -2.9,2.136 -2.9,5.473 v 5.073 h -2.59 V 49.69 c 0,-1.336 -0.703,-2.048 -1.845,-2.048 -1.67,0 -2.9,2.136 -2.9,5.74 v 4.805 h -2.59 v -12.68 h 0.043 z m -63.644,0 H 75.3 l -4.26,9.254 -3.998,-9.253 H 64.1 l 5.446,12.59 -2.372,5.163 h 2.986 l 8.126,-17.753 z"
       fill="#262627"
       fill-rule="nonzero"
       id="path4"
       style="stroke-width:1.6461" />
  </g>
  <g
     inkscape:groupmode="layer"
     id="layer1"
     inkscape:label="Outline">
    <path
       d="M 48.195241,51.337206 V 39.122265 H 111.8046 V 51.337206 H 86.444672 V 120.87775 H 73.760055 V 51.337206 Z"
       fill="#262627"
       fill-rule="nonzero"
       id="path831"
       style="stroke-width:1.28301;fill:#f8f8ff;fill-opacity:1"
       sodipodi:nodetypes="ccccccccc" />
    <path
       d="m 141.76482,109.48604 c -5.11352,11.67085 -10.66144,20.56934 -18.3956,27.88809 -8.60298,8.20221 -18.83001,12.55573 -30.553335,13.5654 -9.664859,0.81965 -19.079864,-0.31481 -28.36994,-3.09144 C 54.965638,145.07149 46.359824,140.71797 38.87836,134.09268 32.705797,128.54087 27.967063,121.91556 24.287375,114.47061 18.613104,103.05077 14.809908,91.062268 13.063759,78.380325 11.94225,70.178117 11.879786,62.038306 14.000717,54.024702 15.995301,46.327332 20.048353,39.892059 25.660161,34.402649 31.208085,28.975634 37.630503,24.812135 44.488748,21.342078 55.029522,16.105087 66.065746,12.192588 77.664144,10.110839 85.95764,8.5963231 94.251134,8.2176932 102.60709,9.9193962 c 7.85483,1.6421438 14.58957,5.3646198 20.45123,10.8540298 6.35995,5.931852 11.09869,13.06057 14.96293,20.821754 4.42925,8.959466 7.54677,18.361375 8.98059,28.330519 1.37137,9.905329 0.74815,19.683031 -1.9307,29.340195 -1.24927,4.163496 -2.6831,8.139816 -3.30774,10.220146 z"
       stroke="#262627"
       id="path829"
       style="fill:none;fill-rule:evenodd;stroke-width:5;stroke-miterlimit:4;stroke-dasharray:none;stroke:#f8f8ff;stroke-opacity:1" />
  </g>
</svg>
